
<svg width="179px" height="176px" viewBox="0 0 146 176" version="1.1" xmlns="http://www.w3.org/2000/svg" xmlns:xlink="http://www.w3.org/1999/xlink">
    <!-- Generator: Sketch 48.2 (47327) - http://www.bohemiancoding.com/sketch -->
    <desc>Created with Sketch.</desc>
    <defs>
        <filter x="-5.1%" y="-3.0%" width="110.1%" height="108.3%" filterUnits="objectBoundingBox" id="filter-1">
            <feOffset dx="0" dy="2" in="SourceAlpha" result="shadowOffsetOuter1"></feOffset>
            <feGaussianBlur stdDeviation="2" in="shadowOffsetOuter1" result="shadowBlurOuter1"></feGaussianBlur>
            <feColorMatrix values="0 0 0 0 0   0 0 0 0 0   0 0 0 0 0  0 0 0 0.5 0" type="matrix" in="shadowBlurOuter1" result="shadowMatrixOuter1"></feColorMatrix>
            <feMerge>
                <feMergeNode in="shadowMatrixOuter1"></feMergeNode>
                <feMergeNode in="SourceGraphic"></feMergeNode>
            </feMerge>
        </filter>
        <rect id="path-2" x="0" y="0" width="138" height="168" rx="8"></rect>
    </defs>
    <g id="Page-1" stroke="none" stroke-width="1" fill="none" fill-rule="evenodd">
        <g id="Setlist" filter="url(#filter-1)" transform="translate(4.000000, 2.000000)">
            <g id="Rectangle">
                <use fill="#00BCD8" fill-rule="evenodd" xlink:href="#path-2"></use>
                <rect stroke="#0897AA" stroke-width="1" x="0.5" y="0.5" width="137" height="167" rx="8"></rect>
            </g>
            <path d="M37,19.5 L101.398148,19.5" id="Line" stroke="#FFFFFF" stroke-width="8" stroke-linecap="square"></path>
            <path d="M47,31.5 L91.3962264,31.5" id="Line" stroke="#FFFFFF" stroke-width="3" stroke-linecap="square"></path>
            <g id="Note_Line" transform="translate(15.000000, 48.000000)">
                <path d="M13,5.5 L108,5.5" id="Line" stroke="#FFFFFF" stroke-width="4" stroke-linecap="square"></path>
                <g id="ic_music_note_white_24px" fill="#FFFFFF" fill-rule="nonzero">
                    <path d="M3.5,0 L3.5,5.86111111 C3.15583333,5.67222222 2.75916667,5.55555556 2.33333333,5.55555556 C1.04416667,5.55555556 0,6.55 0,7.77777778 C0,9.00555556 1.04416667,10 2.33333333,10 C3.6225,10 4.66666667,9.00555556 4.66666667,7.77777778 L4.66666667,2.22222222 L7,2.22222222 L7,0 L3.5,0 Z" id="Shape"></path>
                </g>
            </g>
            <g id="Note_Line" transform="translate(15.000000, 61.000000)">
                <path d="M13,5.5 L108,5.5" id="Line" stroke="#FFFFFF" stroke-width="4" stroke-linecap="square"></path>
                <g id="ic_music_note_white_24px" fill="#FFFFFF" fill-rule="nonzero">
                    <path d="M3.5,0 L3.5,5.86111111 C3.15583333,5.67222222 2.75916667,5.55555556 2.33333333,5.55555556 C1.04416667,5.55555556 0,6.55 0,7.77777778 C0,9.00555556 1.04416667,10 2.33333333,10 C3.6225,10 4.66666667,9.00555556 4.66666667,7.77777778 L4.66666667,2.22222222 L7,2.22222222 L7,0 L3.5,0 Z" id="Shape"></path>
                </g>
            </g>
            <g id="Note_Line" transform="translate(15.000000, 74.000000)">
                <path d="M13,5.5 L108,5.5" id="Line" stroke="#FFFFFF" stroke-width="4" stroke-linecap="square"></path>
                <g id="ic_music_note_white_24px" fill="#FFFFFF" fill-rule="nonzero">
                    <path d="M3.5,0 L3.5,5.86111111 C3.15583333,5.67222222 2.75916667,5.55555556 2.33333333,5.55555556 C1.04416667,5.55555556 0,6.55 0,7.77777778 C0,9.00555556 1.04416667,10 2.33333333,10 C3.6225,10 4.66666667,9.00555556 4.66666667,7.77777778 L4.66666667,2.22222222 L7,2.22222222 L7,0 L3.5,0 Z" id="Shape"></path>
                </g>
            </g>
            <g id="Note_Line" transform="translate(15.000000, 87.000000)">
                <path d="M13,5.5 L108,5.5" id="Line" stroke="#FFFFFF" stroke-width="4" stroke-linecap="square"></path>
                <g id="ic_music_note_white_24px" fill="#FFFFFF" fill-rule="nonzero">
                    <path d="M3.5,0 L3.5,5.86111111 C3.15583333,5.67222222 2.75916667,5.55555556 2.33333333,5.55555556 C1.04416667,5.55555556 0,6.55 0,7.77777778 C0,9.00555556 1.04416667,10 2.33333333,10 C3.6225,10 4.66666667,9.00555556 4.66666667,7.77777778 L4.66666667,2.22222222 L7,2.22222222 L7,0 L3.5,0 Z" id="Shape"></path>
                </g>
            </g>
            <g id="Note_Line" transform="translate(15.000000, 100.000000)">
                <path d="M13,5.5 L108,5.5" id="Line" stroke="#FFFFFF" stroke-width="4" stroke-linecap="square"></path>
                <g id="ic_music_note_white_24px" fill="#FFFFFF" fill-rule="nonzero">
                    <path d="M3.5,0 L3.5,5.86111111 C3.15583333,5.67222222 2.75916667,5.55555556 2.33333333,5.55555556 C1.04416667,5.55555556 0,6.55 0,7.77777778 C0,9.00555556 1.04416667,10 2.33333333,10 C3.6225,10 4.66666667,9.00555556 4.66666667,7.77777778 L4.66666667,2.22222222 L7,2.22222222 L7,0 L3.5,0 Z" id="Shape"></path>
                </g>
            </g>
            <g id="Note_Line" transform="translate(15.000000, 113.000000)">
                <path d="M13,5.5 L108,5.5" id="Line" stroke="#FFFFFF" stroke-width="4" stroke-linecap="square"></path>
                <g id="ic_music_note_white_24px" fill="#FFFFFF" fill-rule="nonzero">
                    <path d="M3.5,0 L3.5,5.86111111 C3.15583333,5.67222222 2.75916667,5.55555556 2.33333333,5.55555556 C1.04416667,5.55555556 0,6.55 0,7.77777778 C0,9.00555556 1.04416667,10 2.33333333,10 C3.6225,10 4.66666667,9.00555556 4.66666667,7.77777778 L4.66666667,2.22222222 L7,2.22222222 L7,0 L3.5,0 Z" id="Shape"></path>
                </g>
            </g>
            <g id="Note_Line" transform="translate(15.000000, 126.000000)">
                <path d="M13,5.5 L108,5.5" id="Line" stroke="#FFFFFF" stroke-width="4" stroke-linecap="square"></path>
                <g id="ic_music_note_white_24px" fill="#FFFFFF" fill-rule="nonzero">
                    <path d="M3.5,0 L3.5,5.86111111 C3.15583333,5.67222222 2.75916667,5.55555556 2.33333333,5.55555556 C1.04416667,5.55555556 0,6.55 0,7.77777778 C0,9.00555556 1.04416667,10 2.33333333,10 C3.6225,10 4.66666667,9.00555556 4.66666667,7.77777778 L4.66666667,2.22222222 L7,2.22222222 L7,0 L3.5,0 Z" id="Shape"></path>
                </g>
            </g>
        </g>
    </g>
</svg>
