
<svg width="179px" height="176px" viewBox="0 0 179 176" version="1.1" xmlns="http://www.w3.org/2000/svg" xmlns:xlink="http://www.w3.org/1999/xlink">
    <!-- Generator: Sketch 48.2 (47327) - http://www.bohemiancoding.com/sketch -->
    <desc>Created with Sketch.</desc>
    <defs>
        <filter x="-6.1%" y="-3.3%" width="112.2%" height="109.3%" filterUnits="objectBoundingBox" id="filter-1">
            <feOffset dx="0" dy="2" in="SourceAlpha" result="shadowOffsetOuter1"></feOffset>
            <feGaussianBlur stdDeviation="2" in="shadowOffsetOuter1" result="shadowBlurOuter1"></feGaussianBlur>
            <feColorMatrix values="0 0 0 0 0   0 0 0 0 0   0 0 0 0 0  0 0 0 0.5 0" type="matrix" in="shadowBlurOuter1" result="shadowMatrixOuter1"></feColorMatrix>
            <feMerge>
                <feMergeNode in="shadowMatrixOuter1"></feMergeNode>
                <feMergeNode in="SourceGraphic"></feMergeNode>
            </feMerge>
        </filter>
        <rect id="path-2" x="0" y="0" width="115" height="150" rx="8"></rect>
        <filter x="-6.1%" y="-3.3%" width="112.2%" height="109.3%" filterUnits="objectBoundingBox" id="filter-3">
            <feOffset dx="0" dy="2" in="SourceAlpha" result="shadowOffsetOuter1"></feOffset>
            <feGaussianBlur stdDeviation="2" in="shadowOffsetOuter1" result="shadowBlurOuter1"></feGaussianBlur>
            <feColorMatrix values="0 0 0 0 0   0 0 0 0 0   0 0 0 0 0  0 0 0 0.5 0" type="matrix" in="shadowBlurOuter1" result="shadowMatrixOuter1"></feColorMatrix>
            <feMerge>
                <feMergeNode in="shadowMatrixOuter1"></feMergeNode>
                <feMergeNode in="SourceGraphic"></feMergeNode>
            </feMerge>
        </filter>
        <rect id="path-4" x="0" y="0" width="115" height="150" rx="8"></rect>
        <filter x="-6.1%" y="-3.3%" width="112.2%" height="109.3%" filterUnits="objectBoundingBox" id="filter-5">
            <feOffset dx="0" dy="2" in="SourceAlpha" result="shadowOffsetOuter1"></feOffset>
            <feGaussianBlur stdDeviation="2" in="shadowOffsetOuter1" result="shadowBlurOuter1"></feGaussianBlur>
            <feColorMatrix values="0 0 0 0 0   0 0 0 0 0   0 0 0 0 0  0 0 0 0.5 0" type="matrix" in="shadowBlurOuter1" result="shadowMatrixOuter1"></feColorMatrix>
            <feMerge>
                <feMergeNode in="shadowMatrixOuter1"></feMergeNode>
                <feMergeNode in="SourceGraphic"></feMergeNode>
            </feMerge>
        </filter>
        <rect id="path-6" x="0" y="0" width="115" height="150" rx="8"></rect>
    </defs>
    <g id="Page-1" stroke="none" stroke-width="1" fill="none" fill-rule="evenodd">
        <g id="Setlist" transform="translate(4.000000, 2.000000)">
            <g id="sheet" filter="url(#filter-1)" transform="translate(0.000000, 18.000000)">
                <g id="Rectangle">
                    <use fill="#00BCD8" fill-rule="evenodd" xlink:href="#path-2"></use>
                    <rect stroke="#0897AA" stroke-width="1" x="0.5" y="0.5" width="114" height="149" rx="8"></rect>
                </g>
                <path d="M50,17.5 L103.5,17.5" id="Line" stroke="#FFFFFF" stroke-width="4" stroke-linecap="square"></path>
                <path d="M50,45.5 L102.5,45.5" id="Line" stroke="#FFFFFF" stroke-width="4" stroke-linecap="square"></path>
                <path d="M13.5,59.5 L103.5,59.5" id="Line" stroke="#FFFFFF" stroke-width="4" stroke-linecap="square"></path>
                <path d="M13.5,73.5 L103.5,73.5" id="Line" stroke="#FFFFFF" stroke-width="4" stroke-linecap="square"></path>
                <path d="M13.5,129.5 L103.5,129.5" id="Line" stroke="#FFFFFF" stroke-width="4" stroke-linecap="square"></path>
                <path d="M12.5,115.5 L102.5,115.5" id="Line" stroke="#FFFFFF" stroke-width="4" stroke-linecap="square"></path>
                <path d="M13.5,87.5 L103.5,87.5" id="Line" stroke="#FFFFFF" stroke-width="4" stroke-linecap="square"></path>
                <path d="M12.5,101.5 L102.5,101.5" id="Line" stroke="#FFFFFF" stroke-width="4" stroke-linecap="square"></path>
                <path d="M50,31.5 L102.5,31.5" id="Line" stroke="#FFFFFF" stroke-width="4" stroke-linecap="square"></path>
                <g id="ic_music_note_white_24px" transform="translate(4.000000, 9.000000)">
                    <polygon id="Shape" points="0 0 43 0 43 42 0 42"></polygon>
                    <path d="M21,5 L21,24.3416667 C19.9183333,23.7183333 18.6716667,23.3333333 17.3333333,23.3333333 C13.2816667,23.3333333 10,26.615 10,30.6666667 C10,34.7183333 13.2816667,38 17.3333333,38 C21.385,38 24.6666667,34.7183333 24.6666667,30.6666667 L24.6666667,12.3333333 L32,12.3333333 L32,5 L21,5 Z" id="Shape" fill="#FFFFFF" fill-rule="nonzero"></path>
                </g>
            </g>
            <g id="sheet" filter="url(#filter-3)" transform="translate(28.000000, 9.000000)">
                <g id="Rectangle">
                    <use fill="#00BCD8" fill-rule="evenodd" xlink:href="#path-4"></use>
                    <rect stroke="#0897AA" stroke-width="1" x="0.5" y="0.5" width="114" height="149" rx="8"></rect>
                </g>
                <path d="M50,17.5 L103.5,17.5" id="Line" stroke="#FFFFFF" stroke-width="4" stroke-linecap="square"></path>
                <path d="M50,45.5 L102.5,45.5" id="Line" stroke="#FFFFFF" stroke-width="4" stroke-linecap="square"></path>
                <path d="M13.5,59.5 L103.5,59.5" id="Line" stroke="#FFFFFF" stroke-width="4" stroke-linecap="square"></path>
                <path d="M13.5,73.5 L103.5,73.5" id="Line" stroke="#FFFFFF" stroke-width="4" stroke-linecap="square"></path>
                <path d="M13.5,129.5 L103.5,129.5" id="Line" stroke="#FFFFFF" stroke-width="4" stroke-linecap="square"></path>
                <path d="M12.5,115.5 L102.5,115.5" id="Line" stroke="#FFFFFF" stroke-width="4" stroke-linecap="square"></path>
                <path d="M13.5,87.5 L103.5,87.5" id="Line" stroke="#FFFFFF" stroke-width="4" stroke-linecap="square"></path>
                <path d="M12.5,101.5 L102.5,101.5" id="Line" stroke="#FFFFFF" stroke-width="4" stroke-linecap="square"></path>
                <path d="M50,31.5 L102.5,31.5" id="Line" stroke="#FFFFFF" stroke-width="4" stroke-linecap="square"></path>
                <g id="ic_music_note_white_24px" transform="translate(4.000000, 9.000000)">
                    <polygon id="Shape" points="0 0 43 0 43 42 0 42"></polygon>
                    <path d="M21,5 L21,24.3416667 C19.9183333,23.7183333 18.6716667,23.3333333 17.3333333,23.3333333 C13.2816667,23.3333333 10,26.615 10,30.6666667 C10,34.7183333 13.2816667,38 17.3333333,38 C21.385,38 24.6666667,34.7183333 24.6666667,30.6666667 L24.6666667,12.3333333 L32,12.3333333 L32,5 L21,5 Z" id="Shape" fill="#FFFFFF" fill-rule="nonzero"></path>
                </g>
            </g>
            <g id="sheet" filter="url(#filter-5)" transform="translate(56.000000, 0.000000)">
                <g id="Rectangle">
                    <use fill="#00BCD8" fill-rule="evenodd" xlink:href="#path-6"></use>
                    <rect stroke="#0897AA" stroke-width="1" x="0.5" y="0.5" width="114" height="149" rx="8"></rect>
                </g>
                <path d="M50,17.5 L103.5,17.5" id="Line" stroke="#FFFFFF" stroke-width="4" stroke-linecap="square"></path>
                <path d="M50,45.5 L102.5,45.5" id="Line" stroke="#FFFFFF" stroke-width="4" stroke-linecap="square"></path>
                <path d="M13.5,59.5 L103.5,59.5" id="Line" stroke="#FFFFFF" stroke-width="4" stroke-linecap="square"></path>
                <path d="M13.5,73.5 L103.5,73.5" id="Line" stroke="#FFFFFF" stroke-width="4" stroke-linecap="square"></path>
                <path d="M13.5,129.5 L103.5,129.5" id="Line" stroke="#FFFFFF" stroke-width="4" stroke-linecap="square"></path>
                <path d="M12.5,115.5 L102.5,115.5" id="Line" stroke="#FFFFFF" stroke-width="4" stroke-linecap="square"></path>
                <path d="M13.5,87.5 L103.5,87.5" id="Line" stroke="#FFFFFF" stroke-width="4" stroke-linecap="square"></path>
                <path d="M12.5,101.5 L102.5,101.5" id="Line" stroke="#FFFFFF" stroke-width="4" stroke-linecap="square"></path>
                <path d="M50,31.5 L102.5,31.5" id="Line" stroke="#FFFFFF" stroke-width="4" stroke-linecap="square"></path>
                <g id="ic_music_note_white_24px" transform="translate(4.000000, 9.000000)">
                    <polygon id="Shape" points="0 0 43 0 43 42 0 42"></polygon>
                    <path d="M21,5 L21,24.3416667 C19.9183333,23.7183333 18.6716667,23.3333333 17.3333333,23.3333333 C13.2816667,23.3333333 10,26.615 10,30.6666667 C10,34.7183333 13.2816667,38 17.3333333,38 C21.385,38 24.6666667,34.7183333 24.6666667,30.6666667 L24.6666667,12.3333333 L32,12.3333333 L32,5 L21,5 Z" id="Shape" fill="#FFFFFF" fill-rule="nonzero"></path>
                </g>
            </g>
        </g>
    </g>
</svg>
