<?xml version="1.0" encoding="UTF-8"?>
<svg width="179px" height="176px" viewBox="0 0 179 176" version="1.1" xmlns="http://www.w3.org/2000/svg" xmlns:xlink="http://www.w3.org/1999/xlink">
    <!-- Generator: Sketch 48.2 (47327) - http://www.bohemiancoding.com/sketch -->
    <title>Sheetmusic_illustrations</title>
    <desc>Created with Sketch.</desc>
    <defs>
        <filter x="-4.1%" y="-3.0%" width="108.2%" height="108.3%" filterUnits="objectBoundingBox" id="filter-1">
            <feOffset dx="0" dy="2" in="SourceAlpha" result="shadowOffsetOuter1"></feOffset>
            <feGaussianBlur stdDeviation="2" in="shadowOffsetOuter1" result="shadowBlurOuter1"></feGaussianBlur>
            <feColorMatrix values="0 0 0 0 0   0 0 0 0 0   0 0 0 0 0  0 0 0 0.5 0" type="matrix" in="shadowBlurOuter1" result="shadowMatrixOuter1"></feColorMatrix>
            <feMerge>
                <feMergeNode in="shadowMatrixOuter1"></feMergeNode>
                <feMergeNode in="SourceGraphic"></feMergeNode>
            </feMerge>
        </filter>
        <rect id="path-2" x="11.4695122" y="134.188679" width="149.103659" height="33.8113208"></rect>
        <rect id="path-3" x="69.8597561" y="105.660377" width="32.3231707" height="28.5283019"></rect>
        <rect id="path-4" x="0" y="0" width="171" height="105.660377" rx="8"></rect>
        <rect id="path-5" x="5.21341463" y="6.33962264" width="160.573171" height="89.8113208"></rect>
    </defs>
    <g id="Page-1" stroke="none" stroke-width="1" fill="none" fill-rule="evenodd">
        <g id="Computer" filter="url(#filter-1)" transform="translate(4.000000, 2.000000)">
            <g id="Rectangle-2">
                <use fill="#00BCD4" fill-rule="evenodd" xlink:href="#path-2"></use>
                <rect stroke="#0097AA" stroke-width="1" x="11.9695122" y="134.688679" width="148.103659" height="32.8113208"></rect>
            </g>
            <g id="Rectangle-3">
                <use fill="#0097B3" fill-rule="evenodd" xlink:href="#path-3"></use>
                <rect stroke="#0097AA" stroke-width="1" x="70.3597561" y="106.160377" width="31.3231707" height="27.5283019"></rect>
            </g>
            <g id="Rectangle-4">
                <use fill="#00BCD4" fill-rule="evenodd" xlink:href="#path-4"></use>
                <rect stroke="#0097AA" stroke-width="1" x="0.5" y="0.5" width="170" height="104.660377" rx="8"></rect>
            </g>
            <g id="Rectangle-5">
                <use fill="#FFFFFF" fill-rule="evenodd" xlink:href="#path-5"></use>
                <rect stroke="#0097AA" stroke-width="1" x="5.71341463" y="6.83962264" width="159.573171" height="88.8113208"></rect>
            </g>
            <g id="ic_cloud_download_black_24px" transform="translate(35.000000, 20.000000)" fill="#00BCD4" fill-rule="nonzero">
                <path d="M82.3849848,23.9320755 C79.4898018,10.2622642 66.5892073,0 51.0914634,0 C38.786936,0 28.1003049,6.49811321 22.7782774,16.0075472 C9.96283537,17.2754717 0,27.3792453 0,39.6226415 C0,52.7377358 11.453003,63.3962264 25.5457317,63.3962264 L80.8948171,63.3962264 C92.6458537,63.3962264 102.182927,54.5207547 102.182927,43.5849057 C102.182927,33.1245283 93.4548018,24.645283 82.3849848,23.9320755 Z M73.1414634,36.0419287 L51.6292683,56 L30.1170732,36.0419287 L43.0243902,36.0419287 L43.0243902,20.0754717 L60.2341463,20.0754717 L60.2341463,36.0419287 L73.1414634,36.0419287 Z" id="Shape"></path>
            </g>
            <ellipse id="Oval" stroke="#0097AA" fill="#FFFFFF" cx="156.92378" cy="99.8490566" rx="1.56402439" ry="1.58490566"></ellipse>
            <path d="M27.6310976,140 L80.8079268,140" id="Line-2" stroke="#FFFFFF" stroke-width="3" stroke-linecap="square"></path>
            <path d="M27.6310976,144.226415 L50.570122,144.226415" id="Line-2" stroke="#FFFFFF" stroke-width="3" stroke-linecap="square"></path>
            <path d="M57.8689024,144.226415 L80.8079268,144.226415" id="Line-2" stroke="#FFFFFF" stroke-width="3" stroke-linecap="square"></path>
            <ellipse id="Oval-2" stroke="#0097AA" fill="#FFFFFF" cx="20.8536585" cy="140.528302" rx="2.08536585" ry="2.11320755"></ellipse>
        </g>
    </g>
</svg>